PathFileType	4	(X/Y/Z)	OpenSim_Sub09_EMGStiffKnee_Accel.trc
DataRate	CameraRate	NumFrames	NumMarkers	Units	OrigDataRate	OrigDataStartFrame	OrigNumFrames
100	100	37	8	m	100	6637	7584
Frame#	Time	torso_imu_offset_imu	pelvis_imu_offset_imu	tibia_r_imu_offset_imu	femur_r_imu_offset_imu	tibia_l_imu_offset_imu	femur_l_imu_offset_imu	toes_r_imu_offset_imu	toes_l_imu_offset_imu
				X1	Y1	Z1	X2	Y2	Z2	X3	Y3	Z3	X4	Y4	Z4	X5	Y5	Z5	X6	Y6	Z6	X7	Y7	Z7	X8		Y8	Z8	

6637	66.36000000	7.79133457	1.96791365	6.48026197	8.69461282	1.13633845	3.90984473	9.98278014	6.62401740	-0.16592239	10.52136297	0.87428326	2.51602791	9.59557544	-0.49244416	0.24278594	8.64288263	-0.18239634	-1.56517321	4.46463451	-3.73217900	11.47962381	5.23774885	2.60092140	10.63762966
6638	66.37000000	7.70533835	1.80001216	6.57196551	8.32425305	0.73763143	3.83638706	9.20598304	6.21433236	0.53385611	10.05145131	0.87467500	2.87289417	9.29358017	-0.72709466	0.54154247	8.59465121	-0.38779287	-1.47922434	5.48146767	-3.21361033	11.65832567	5.36855280	2.46874621	10.62084074
6639	66.38000000	7.74925044	1.66155524	6.59337900	8.09669137	0.11268111	3.78484448	8.25550171	5.84477015	0.98755936	9.52479891	0.85978178	3.21021364	8.92053415	-1.43355165	0.52038985	8.77356751	-0.39703540	-1.40300381	6.38172169	-2.95738158	11.80460463	5.29010174	2.30289875	10.57677666
6640	66.39000000	7.78534115	1.57115982	6.74690198	7.97362957	-0.71206245	3.75438512	7.67411683	5.75576036	1.23764169	9.08112283	0.66209904	3.51884430	8.76422079	-1.93715137	0.33857452	8.96061060	-0.34327591	-1.35523133	7.27681221	-2.74166468	11.88774502	5.04133160	2.39035229	10.74470528
6641	66.40000000	7.61682599	1.54199908	6.77667313	7.89499972	-1.44372815	3.76284397	7.59722477	5.63559321	1.10454110	8.71428211	0.65971951	3.75689893	8.95655451	-2.06692271	0.39811407	9.07141038	-0.34545858	-1.49472454	7.85329081	-2.60576139	11.90175012	5.34838774	2.26032180	10.57649867
6642	66.41000000	7.55074365	1.67442350	6.88650950	8.02103956	-2.09988197	3.84767919	7.99703350	5.36307923	1.00216110	8.43535919	0.55381786	3.88005123	9.11734568	-1.92612411	0.23932157	9.12839633	-0.37108674	-1.67313038	8.10425595	-2.70312063	11.77253714	5.38899902	2.16015762	10.58096871
6643	66.42000000	7.48362776	1.67004016	6.81996010	8.09597239	-2.57601054	3.89631835	8.61313295	5.07045472	1.05047147	8.10817327	0.12862205	3.99369328	9.26984613	-1.97529877	0.21873519	9.18828618	-0.39513146	-1.71080259	8.32320388	-2.49379363	11.61581388	5.41448982	1.98825333	10.49853853
6644	66.43000000	7.50359704	1.70853891	6.75415675	8.23752746	-2.90549836	3.80917108	9.12456288	4.56002442	0.98108456	7.68099780	-0.35412784	4.00990932	9.51316202	-2.04649313	-0.09748893	9.28352511	-0.62179265	-1.74422806	8.43008297	-2.41342235	11.46439890	4.85247795	2.38562711	10.87516252
6645	66.44000000	7.65435877	1.80701464	6.77737706	8.49116295	-3.15930193	3.64924896	9.32168461	4.00302983	1.00320619	7.31924823	-0.91559786	3.88895984	9.81346273	-2.09542639	-0.22905984	9.44058186	-0.92106821	-1.76855459	8.25691231	-2.39953726	11.36466473	5.01206074	2.35556519	10.87326617
6646	66.45000000	7.83455879	1.88951708	6.78554336	8.76001502	-3.31573598	3.41958394	9.42061290	3.47728749	1.21925879	7.00425536	-1.54673317	3.82022097	10.02276965	-1.99684321	-0.42888106	9.67488693	-1.22113280	-1.84050447	8.29446724	-2.23199195	11.56124353	5.08260883	2.16856735	10.75102784
6647	66.46000000	8.10714287	1.98042564	6.81680049	8.86514259	-3.37918035	3.29461369	9.60996472	2.79025506	1.37252058	6.82510767	-2.07191444	3.70523494	10.03318672	-2.11149368	-0.58109772	9.66548133	-1.45167521	-1.73801525	9.13674455	-2.04875857	11.90539985	5.40529639	2.07504184	10.68561276
6648	66.47000000	8.30866547	2.01614747	6.80310967	9.01946447	-3.30088384	3.15706181	9.89649281	2.60111070	1.85860486	6.65572716	-2.39919358	3.54250096	10.04901926	-2.32755856	-0.69497604	9.74850313	-1.60176601	-1.62333474	10.41776074	-2.21397200	12.02809141	5.08898956	2.34738139	10.89909565
6649	66.48000000	8.44904203	2.00194710	6.81370050	9.10041496	-3.26207072	2.92760564	10.23107140	3.10503121	2.24165420	6.54779608	-2.58896732	3.29920075	10.08982078	-2.39357345	-0.66934725	9.84053065	-1.61612090	-1.40322279	11.03609594	-2.83481093	11.87031857	4.80665148	2.48477296	11.03937657
6650	66.49000000	8.50673397	1.95138340	6.80027749	9.16527397	-3.05379559	2.90564235	10.53058053	4.23196551	2.11551247	6.40447137	-2.69590982	3.01022817	10.09363029	-1.99512466	-0.42272361	9.96147609	-1.66050163	-1.33761947	11.30741357	-3.47095926	11.82466023	5.11506034	2.38461954	10.89096494
6651	66.50000000	8.60567258	1.94418208	6.82623307	9.12718153	-3.00293441	2.79524063	10.69305449	5.57649265	1.84881495	6.29070851	-2.75352605	2.74049808	10.08397116	-1.70465153	-0.25206251	10.02032127	-1.61130062	-1.47141108	12.00960215	-3.73311167	11.75835150	5.14599686	2.31723479	11.00321804
6652	66.51000000	8.74317136	1.93180961	6.80713645	9.04499331	-2.90771726	2.79137901	10.77584130	6.50077163	1.48776803	6.23556328	-2.85654013	2.57150848	10.10371689	-1.66926099	-0.16896642	10.03230557	-1.40270014	-1.68926495	12.10241139	-3.88921039	11.15260872	5.14323148	2.15218335	10.87928103
6653	66.52000000	8.80327080	1.83437337	6.78492037	8.95819763	-2.77832089	2.74561513	10.61405472	6.60654228	1.30727852	6.24917360	-3.10071207	2.55741695	10.26227104	-1.60334488	-0.12792753	9.93784434	-0.99146843	-1.74593065	11.63524735	-4.04631444	10.20337928	4.66449784	2.48480607	11.29924740
6654	66.53000000	8.85907370	1.75756594	6.67587463	8.82889622	-2.56780072	2.78535338	10.12141954	5.93094193	1.50986501	6.49632635	-3.35808008	2.59361674	10.39544791	-1.32082384	0.06598531	9.91914545	-0.56504414	-1.72422109	11.29334981	-4.41096309	8.87046303	4.93587087	2.53738407	11.05630587
6655	66.54000000	8.99281367	1.69260652	6.63571027	8.83637935	-2.29781827	2.70908791	9.45179372	4.72654921	1.89593117	6.93495961	-3.76432472	2.95354696	10.30728253	-1.06114169	0.12650848	9.95326789	-0.10780257	-1.65833488	11.56085454	-4.94645705	7.49727551	4.96938938	2.50781945	11.08968603
6656	66.55000000	8.97786728	1.56186889	6.56071631	8.70633387	-2.04493294	2.68836360	8.70142575	3.00157559	2.30087565	7.49985238	-4.37863353	3.42071392	10.21319179	-1.11247117	0.34993156	9.94207431	0.35169222	-1.51238697	12.22233348	-5.50853036	6.25348589	5.30492217	2.29814467	10.93540034
6657	66.56000000	8.90284173	1.51234787	6.51786911	8.79508426	-1.78522437	2.62151953	7.96651896	1.27801962	2.11868094	8.22392307	-5.29001492	3.99925508	10.17115758	-1.24270431	0.50115105	9.87047664	0.78933095	-1.47919273	12.67773722	-4.39810979	5.20616606	4.89368585	2.28099170	11.17827654
6658	66.57000000	8.93335457	1.51373408	6.43705894	8.75164978	-1.56507095	2.55717106	7.25065170	0.04324359	1.83914785	8.92540723	-6.27274236	4.67632898	10.35487910	-1.13987911	0.57174633	9.74551918	1.16692775	-1.31230670	12.76550659	-3.06176092	3.82558255	4.72482079	2.24963410	11.31889201
6659	66.58000000	9.03696787	1.51365333	6.36828380	8.76190017	-1.47190257	2.45455009	6.70443946	-0.57000493	2.36459994	9.43245524	-7.12196678	5.02456677	10.42604835	-0.98519246	0.83358660	9.75156730	1.47266632	-1.17454334	13.43496816	-1.56855105	2.91893032	5.08611617	1.88527007	11.17943877
6660	66.59000000	9.01447038	1.48847982	6.35420639	8.63751627	-1.57937881	2.42808102	6.43769063	-1.06962918	2.20318230	9.59079106	-7.71805728	5.28229037	10.35230657	-0.94129403	1.16702936	9.76442630	1.71263549	-1.14833813	15.12921397	-0.10867271	1.94265819	5.15652006	1.29217335	11.24602100
6661	66.60000000	9.05733651	1.53760535	6.28795396	8.53635594	-1.82076412	2.40363251	6.40232892	-1.06409033	1.91728998	9.58640595	-8.18357139	5.51881646	10.54364496	-0.77664927	1.35981955	9.77667333	1.79324538	-1.25213255	15.81960187	0.95113325	0.47917147	5.01082131	1.41757523	11.38290465
6662	66.61000000	9.14078446	1.60727501	6.14464945	8.46507722	-2.16782392	2.32058818	6.34328935	-0.67824566	1.99329956	9.43457690	-8.50971734	5.48129368	10.87585055	-0.76758927	1.46753674	9.93488401	1.80639936	-1.47811312	15.35214430	1.01945755	-1.66019555	4.68299290	1.08199283	11.85885194
6663	66.62000000	9.28401688	1.61654997	6.08805454	8.49968431	-2.56187318	2.18488295	6.31224818	-0.14434044	1.75693926	8.94673265	-8.77343635	5.11848223	11.37130648	-0.62773506	1.55811963	10.17639220	1.73515018	-1.65544216	14.25692572	0.73823256	-3.78961787	5.02545071	0.74953453	11.72632760
6664	66.63000000	9.53084211	1.70462440	6.05577693	8.53097607	-2.76885353	1.88857757	6.11424007	0.07335789	1.61131899	8.43441378	-8.92413440	4.41149669	11.37904387	-0.69650017	1.72675876	10.44829035	1.65299469	-1.71436515	13.66857251	0.36072339	-5.43613704	5.12385652	1.23151148	11.61874330
6665	66.64000000	9.68165977	1.76203461	6.11463786	8.56225402	-2.99024265	1.62596712	5.86727398	-0.41287364	2.15249410	7.64631391	-8.71815901	3.51411962	10.70668305	-0.72012380	1.63478104	10.45146504	1.48636059	-1.79713064	13.58326542	0.49185371	-5.93911479	5.17233687	1.09295688	11.45749857
6666	66.65000000	9.61430115	1.78470154	6.11229309	8.69125854	-3.03966139	1.35536590	5.75417773	-1.17470946	2.05245941	6.85861807	-7.97998060	2.70711962	10.72926308	-1.23044224	0.85342544	10.61103387	1.29720047	-1.92578836	13.96248922	1.22773654	-5.18558604	4.79124240	1.34000000	11.67962123
6667	66.66000000	9.49080415	1.84582490	6.12776543	8.79059460	-2.82577652	1.02035946	5.56586667	-1.24462173	1.42627120	6.16985522	-6.68092741	2.23961220	10.95455373	-2.19819031	0.47686448	10.64704793	1.09717950	-1.98058992	13.97417308	1.93767549	-3.71790196	5.11662501	1.32709636	11.50560290
6668	66.67000000	9.43259713	1.91322288	6.08856839	8.80453594	-2.71631683	0.69285214	5.21186916	-0.60117476	0.68885128	5.36629325	-4.81701059	2.34007971	10.56834649	-2.93819576	0.42296932	10.38628980	1.01358610	-2.14199989	13.18908428	1.12522597	-2.71407791	5.30513223	1.47744847	11.31357472
6669	66.68000000	9.42282294	1.91916530	6.04530228	8.82702034	-2.58884687	0.44223671	4.67472091	0.46965640	0.29054705	4.69825682	-2.76091571	3.09795415	10.32492537	-2.87282334	0.32826244	10.01591921	0.98303447	-2.22228866	11.06168949	-0.39009879	-1.92663901	5.65236355	1.58865698	11.17702531
6670	66.69000000	9.27755187	1.90004327	5.95568494	8.89912376	-2.68177704	0.67078042	4.23528018	1.63886131	0.41759228	4.54695172	-1.41142748	4.55695854	10.42197868	-2.37197189	0.73168220	9.94144841	0.83318015	-2.20152633	3.02748756	-2.59176934	-0.97288528	5.48620019	1.96679829	11.25895041
6671	66.70000000	9.26124018	1.85510770	6.19793987	10.28835524	-2.66276711	4.09900486	5.15592180	1.29559608	-0.87776914	5.32435425	-0.65353569	6.51392887	10.74063917	-1.82656850	0.74656192	9.99426220	0.81110789	-2.62052781	-38.51520142	-5.68039272	2.34620397	5.50793856	2.17320686	11.31358624
6672	66.71000000	10.53011796	1.62185409	6.77042832	11.63176019	-1.02959403	6.61993627	9.99301772	-0.19258432	5.23227033	8.52743388	0.48148244	5.79202746	11.46482326	-0.43790563	0.77747685	10.14144285	0.86804348	-2.53446367	-2.85603510	-7.25088075	23.73709619	5.83832184	2.40482709	11.67598472
6673	66.72000000	12.98507802	1.12268810	7.28600270	12.37465031	0.56360140	8.01997522	25.30743211	-6.19345769	21.18189865	13.11745470	1.95235574	6.35698045	12.32536534	1.21509902	1.59187262	10.79451498	1.28394862	-1.83948664	41.11847162	2.25136875	19.45693883	6.08911767	2.68954675	11.70467563
